# xmcd
# 
# Track frame offsets:
#     150
#     22433
#     38993
#     65413
#     101640
#     122555
#     143943
#     159810
# 
# Disc length: 2559
# 
# Revision: 68
# Processed by: cddbd v1.5.2PL0 Copyright (c) Steve Scherf et al.
# Submitted via: fre:ac v1.0.17
# 
DISCID=6c09fd08
DTITLE=Led Zeppelin - IV
DYEAR=1971
DGENRE=Rock
TTITLE0=Black Dog
TTITLE1=Rock And Roll
TTITLE2=The Battle Of Evermore
TTITLE3=Stairway To Heaven
TTITLE4=Misty Mountain Hop
TTITLE5=Four Sticks
TTITLE6=Going To California
TTITLE7=When The Levee Breaks
EXTD=Rermaster by Jimmy Page and George Marino at Sterling Sound, 
EXTT0=
EXTT1=
EXTT2=
EXTT3=
EXTT4=
EXTT5=
EXTT6=
EXTT7=
PLAYORDER=
